<svg xmlns="http://www.w3.org/2000/svg" width="29" height="29" viewBox="0 0 29 29"><defs><style>.a{fill:#fff;stroke:rgba(30,60,80,0.6);stroke-width:1.6px;}.b{fill:#1e3c50;}.c{stroke:none;}.d{fill:none;}</style></defs><g class="a"><circle class="c" cx="14.5" cy="14.5" r="14.5"/><circle class="d" cx="14.5" cy="14.5" r="13.7"/></g><path class="b" d="M7.373,13.366a3.286,3.286,0,1,0,3.286-3.286,3.286,3.286,0,0,0-3.286,3.286Zm10.362-5.56H14.2c-.253-1.011-.505-2.022-1.516-2.022H8.636C7.625,5.784,7.373,6.8,7.12,7.806H3.582A1.014,1.014,0,0,0,2.571,8.817v9.1a1.014,1.014,0,0,0,1.011,1.011H17.735a1.014,1.014,0,0,0,1.011-1.011v-9.1a1.014,1.014,0,0,0-1.011-1.011ZM10.658,17.852a4.486,4.486,0,1,1,4.486-4.486A4.486,4.486,0,0,1,10.658,17.852Zm7.077-7.013H15.713V9.828h2.022Z" transform="translate(3.954 1.421)"/></svg>