<svg xmlns="http://www.w3.org/2000/svg" width="22.857" height="16" viewBox="0 0 22.857 16"><defs><style>.a{fill:#1e88e5;}</style></defs><path class="a" d="M19.2,38.95A3.433,3.433,0,0,0,16,34.286a3.411,3.411,0,0,0-1.9.579,5.715,5.715,0,0,0-10.668,2.85c0,.1,0,.193.007.289A5.144,5.144,0,0,0,5.143,48H18.286a4.571,4.571,0,0,0,.914-9.05Zm-5.15,2.193H11.714v4a.573.573,0,0,1-.571.571H9.429a.573.573,0,0,1-.571-.571v-4H6.521a.57.57,0,0,1-.4-.975L9.882,36.4a.573.573,0,0,1,.807,0l3.764,3.764a.571.571,0,0,1-.4.975Z" transform="translate(0 -32)"/></svg>