<svg xmlns="http://www.w3.org/2000/svg" width="20" height="20" viewBox="0 0 20 20"><defs><style>.a,.c{fill:none;}.b,.e{fill:#325f80;}.d,.e{stroke:none;}</style></defs><g transform="translate(-3007 5091.452)"><g class="a" transform="translate(3008 -5090.452)"><path class="d" d="M6.2,15.2H2.426v-3.77L0,9,2.426,6.574V2.459H6.541L9,0l2.459,2.459h3.7v3.7L18,9l-2.837,2.837V15.2H11.8L9,18Z"/><path class="e" d="M 9 15.73725986480713 L 10.67288017272949 14.06437969207764 L 11.14151000976562 13.5957498550415 L 11.80424976348877 13.5957498550415 L 13.56254005432129 13.5957498550415 L 13.56254005432129 11.83745956420898 L 13.56254005432129 11.17471981048584 L 14.03116989135742 10.70608997344971 L 15.73725986480713 9 L 14.03116989135742 7.293910026550293 L 13.56254005432129 6.82528018951416 L 13.56254005432129 6.162539958953857 L 13.56254005432129 4.059179782867432 L 11.45919036865234 4.059179782867432 L 10.79644966125488 4.059179782867432 L 10.32781982421875 3.590549945831299 L 9.000001907348633 2.26273775100708 L 7.672190189361572 3.590549945831299 L 7.203559875488281 4.059179782867432 L 6.540820121765137 4.059179782867432 L 4.025969982147217 4.059179782867432 L 4.025969982147217 6.574029922485352 L 4.025969982147217 7.236770153045654 L 3.557339906692505 7.705399990081787 L 2.26273775100708 9.000001907348633 L 3.557339906692505 10.29461002349854 L 4.025969982147217 10.76323986053467 L 4.025969982147217 11.42597961425781 L 4.025969982147217 13.5957498550415 L 6.19575023651123 13.5957498550415 L 6.858489990234375 13.5957498550415 L 7.327119827270508 14.06437969207764 L 9 15.73725986480713 M 9 18 L 6.19575023651123 15.19575023651123 L 2.425970077514648 15.19575023651123 L 2.425970077514648 11.42597961425781 L 0 9 L 2.425970077514648 6.574029922485352 L 2.425970077514648 2.459180116653442 L 6.540820121765137 2.459180116653442 L 9 0 L 11.45919036865234 2.459180116653442 L 15.16254043579102 2.459180116653442 L 15.16254043579102 6.162539958953857 L 18 9 L 15.16254043579102 11.83745956420898 L 15.16254043579102 15.19575023651123 L 11.80424976348877 15.19575023651123 L 9 18 Z"/></g><path class="b" d="M2.041,8.041A4.016,4.016,0,0,1,0,7.485,4.2,4.2,0,0,0,1.985,3.9,4.23,4.23,0,0,0,.192.45,4.021,4.021,0,1,1,2.041,8.041Z" transform="translate(3014.574 -5085.307)"/></g><rect class="c" width="20" height="20"/></svg>