<svg xmlns="http://www.w3.org/2000/svg" width="24" height="24" viewBox="0 0 24 24"><defs><style>.a{fill:#1e88e5;}.b{fill:none;}</style></defs><path class="a" d="M1733.174,178.539H1722.4a1.608,1.608,0,0,0-1.6,1.585v18.449a1.6,1.6,0,0,0,1.586,1.567h15.176a1.617,1.617,0,0,0,1.638-1.584V184.307Zm4.406,20-15.18.016V180.139h10.131l5.068,4.85Z" transform="translate(-1718 -177.339)"/><path class="a" d="M1727.2,188.139a.8.8,0,0,0,.8.8h6.8a.8.8,0,0,0,0-1.6H1728A.8.8,0,0,0,1727.2,188.139Z" transform="translate(-1718 -177.339)"/><path class="a" d="M1734.8,190.939H1728a.8.8,0,1,0,0,1.6h6.8a.8.8,0,0,0,0-1.6Z" transform="translate(-1718 -177.339)"/><path class="a" d="M1734.8,194.539H1728a.8.8,0,1,0,0,1.6h6.8a.8.8,0,0,0,0-1.6Z" transform="translate(-1718 -177.339)"/><path class="a" d="M1724.232,187.575a.8.8,0,0,0-.232.564.792.792,0,0,0,.8.8.8.8,0,0,0,.564-.232.82.82,0,0,0,.236-.568.8.8,0,0,0-.236-.564A.824.824,0,0,0,1724.232,187.575Z" transform="translate(-1718 -177.339)"/><path class="a" d="M1725.54,191.435a.786.786,0,0,0-.076-.14.862.862,0,0,0-.22-.22.784.784,0,0,0-.14-.076.63.63,0,0,0-.148-.044.819.819,0,0,0-.312,0,.727.727,0,0,0-.152.044.912.912,0,0,0-.136.076.714.714,0,0,0-.124.1.7.7,0,0,0-.1.12.588.588,0,0,0-.076.14.633.633,0,0,0-.044.148.769.769,0,0,0,0,.312.665.665,0,0,0,.044.152.649.649,0,0,0,.076.136.7.7,0,0,0,.1.12.714.714,0,0,0,.124.1.912.912,0,0,0,.136.076.727.727,0,0,0,.152.044.768.768,0,0,0,.312,0,.63.63,0,0,0,.148-.044.784.784,0,0,0,.14-.076.862.862,0,0,0,.22-.22.913.913,0,0,0,.076-.136.944.944,0,0,0,.044-.152.769.769,0,0,0,0-.312A.9.9,0,0,0,1725.54,191.435Z" transform="translate(-1718 -177.339)"/><path class="a" d="M1725.54,195.035a.954.954,0,0,0-.076-.14.567.567,0,0,0-.1-.12.824.824,0,0,0-1.132,0,.7.7,0,0,0-.1.12.677.677,0,0,0-.076.14.633.633,0,0,0-.044.148.769.769,0,0,0,0,.312.665.665,0,0,0,.044.152.649.649,0,0,0,.076.136.7.7,0,0,0,.1.12.714.714,0,0,0,.124.1.655.655,0,0,0,.136.076.726.726,0,0,0,.152.044.768.768,0,0,0,.312,0,.63.63,0,0,0,.148-.044.593.593,0,0,0,.14-.076.862.862,0,0,0,.22-.22.913.913,0,0,0,.076-.136.945.945,0,0,0,.044-.152.769.769,0,0,0,0-.312A.9.9,0,0,0,1725.54,195.035Z" transform="translate(-1718 -177.339)"/><g transform="translate(-1718 -177.339)"><rect class="b" width="24" height="24" transform="translate(1718 177.34)"/></g></svg>