<svg xmlns="http://www.w3.org/2000/svg" width="21.984" height="21.984" viewBox="0 0 21.984 21.984"><defs><style>.a{fill:none;}.b{fill:rgba(0,0,0,0.54);}</style></defs><path class="a" d="M1,0H22.984V21.984H1Z" transform="translate(-1)"/><path class="b" d="M12.076,4.5A10.792,10.792,0,0,0,2,11.37a10.824,10.824,0,0,0,20.152,0A10.792,10.792,0,0,0,12.076,4.5Zm0,11.45a4.58,4.58,0,1,1,4.58-4.58A4.536,4.536,0,0,1,12.076,15.95Zm0-7.328a2.748,2.748,0,1,0,2.748,2.748A2.7,2.7,0,0,0,12.076,8.622Z" transform="translate(-1.084 -0.378)"/></svg>