<svg xmlns="http://www.w3.org/2000/svg" width="20" height="20" viewBox="0 0 20 20"><defs><style>.a{fill:#fff;}.a,.b{stroke:#325f80;stroke-width:1.4px;}.b,.c{fill:none;}.b{stroke-linecap:round;}.d{stroke:none;}</style></defs><g transform="translate(-1359.7 -145.6)"><g class="a" transform="translate(1361.5 147)"><ellipse class="d" cx="8.226" cy="8.569" rx="8.226" ry="8.569"/><ellipse class="c" cx="8.226" cy="8.569" rx="7.526" ry="7.869"/></g><line class="b" y2="14.567" transform="translate(1369.726 148.285)"/><path class="b" d="M0,0V12.459" transform="translate(1375.762 151.456) rotate(90)"/><path class="b" d="M14.488,0H0" transform="translate(1362.588 155.635)"/><path class="b" d="M0,0V12.224" transform="translate(1375.761 159.457) rotate(90)"/><path class="b" d="M49.5,5.7a9.566,9.566,0,0,1,4.014,7.72,10.626,10.626,0,0,1-4.014,7.72" transform="translate(1320.5 142.201)"/><path class="b" d="M53.515,5.7A9.567,9.567,0,0,0,49.5,13.419a10.627,10.627,0,0,0,4.015,7.721" transform="translate(1315.979 142.201)"/></g><rect class="c" width="20" height="20"/></svg>