<svg xmlns="http://www.w3.org/2000/svg" xmlns:xlink="http://www.w3.org/1999/xlink" width="30" height="30" viewBox="0 0 30 30"><defs><style>.a{fill:#1e88e5;}.b{fill:#325f80;opacity:0;}.c{clip-path:url(#a);}</style><clipPath id="a"><path class="a" d="M18,9a1.063,1.063,0,0,1-1.125,1.125h-6.75v6.75A1.063,1.063,0,0,1,9,18a1.063,1.063,0,0,1-1.125-1.125v-6.75H1.125A1.063,1.063,0,0,1,0,9,1.063,1.063,0,0,1,1.125,7.875h6.75V1.125A1.063,1.063,0,0,1,9,0a1.063,1.063,0,0,1,1.125,1.125v6.75h6.75A1.063,1.063,0,0,1,18,9Z"/></clipPath></defs><g transform="translate(-1274 -205)"><rect class="b" width="30" height="30" transform="translate(1274 205)"/><g transform="translate(1280 211)"><path class="a" d="M18,9a1.063,1.063,0,0,1-1.125,1.125h-6.75v6.75A1.063,1.063,0,0,1,9,18a1.063,1.063,0,0,1-1.125-1.125v-6.75H1.125A1.063,1.063,0,0,1,0,9,1.063,1.063,0,0,1,1.125,7.875h6.75V1.125A1.063,1.063,0,0,1,9,0a1.063,1.063,0,0,1,1.125,1.125v6.75h6.75A1.063,1.063,0,0,1,18,9Z"/><g class="c"><g transform="translate(-4.5 -4.5)"><rect class="a" width="27" height="27"/></g></g></g></g></svg>