<svg xmlns="http://www.w3.org/2000/svg" width="14.688" height="14.667" viewBox="0 0 14.688 14.667"><defs><style>.a{fill:#1e88e5;}</style></defs><g transform="translate(-1327 -213.307)"><g transform="translate(705.238 -281.815)"><path class="a" d="M633.7,506.869c-2.811,2.807-5.708,5.7-8.618,8.59a1,1,0,0,1-.615.254c-.859.028-1.719.012-2.7.012,0-1-.01-1.951.011-2.9,0-.13.141-.274.248-.381,2.893-2.9,5.789-5.8,8.621-8.638Z" transform="translate(0 -5.941)"/><path class="a" d="M656.444,499.843l-3.167-3.19c.433-.384.914-.814,1.4-1.241a.871.871,0,0,1,1.318.023c.579.563,1.146,1.137,1.712,1.714a.843.843,0,0,1,.01,1.308C657.292,498.914,656.873,499.375,656.444,499.843Z" transform="translate(-21.571)"/></g></g></svg>