<svg id="ic_manage_style" data-name="ic_manage style" xmlns="http://www.w3.org/2000/svg" width="24" height="24" viewBox="0 0 24 24">
  <path id="Path_803" data-name="Path 803" d="M803.353,8252.874h-6.634v-12.582l-1.573,1.574L792,8238.717l4.719-4.72h3.146a3.929,3.929,0,0,0,6.292,0H809.3l4.719,4.72-3.146,3.149-1.573-1.574v3.5" transform="translate(-791 -8231.396)" fill="none" stroke="#fff" stroke-linecap="round" stroke-linejoin="round" stroke-width="1.6"/>
  <path id="Rectangle_6212" data-name="Rectangle 6212" d="M.5,0h2A.5.5,0,0,1,3,.5V2A0,0,0,0,1,3,2H0A0,0,0,0,1,0,2V.5A.5.5,0,0,1,.5,0Z" transform="translate(20.975 13.6) rotate(45)" fill="#fff"/>
  <path id="Path_1113" data-name="Path 1113" d="M0,0H2V2.25L1.028,4,0,2.25Z" transform="translate(17.086 18.196) rotate(45)" fill="#fff" stroke="#fff" stroke-linecap="round" stroke-linejoin="round" stroke-width="1"/>
  <rect id="Rectangle_6214" data-name="Rectangle 6214" width="3" height="5" transform="translate(19.207 15.367) rotate(45)" fill="#fff"/>
  <rect id="Rectangle_4890" data-name="Rectangle 4890" width="24" height="24" fill="none"/>
</svg>
