<svg id="ic_settings_white" xmlns="http://www.w3.org/2000/svg" width="30" height="30" viewBox="0 0 30 30">
  <rect id="Rectangle_1943" data-name="Rectangle 1943" width="30" height="30" fill="none"/>
  <path id="Union_4" data-name="Union 4" d="M11.465,27.318a2.329,2.329,0,0,1-.682-1.671v-1.8a9.986,9.986,0,0,1-1.47-.592L8.038,24.527a2.387,2.387,0,0,1-3.321.01L3.472,23.293a2.391,2.391,0,0,1,0-3.332L4.68,18.753a9.309,9.309,0,0,1-.661-1.537H2.353A2.356,2.356,0,0,1,0,14.864V13.135a2.37,2.37,0,0,1,2.353-2.381H3.915a9.46,9.46,0,0,1,.64-1.633L3.472,8.038a2.387,2.387,0,0,1,0-3.332L4.707,3.472a2.39,2.39,0,0,1,3.332,0L9.083,4.517a9.681,9.681,0,0,1,1.7-.725V2.353A2.328,2.328,0,0,1,13.136,0h1.728a2.328,2.328,0,0,1,2.353,2.353V3.8a10.563,10.563,0,0,1,1.7.716l1.046-1.046a2.386,2.386,0,0,1,3.321-.01l1.245,1.245a2.379,2.379,0,0,1,0,3.332L23.445,9.121a9.433,9.433,0,0,1,.64,1.633h1.563A2.37,2.37,0,0,1,28,13.135v1.728a2.356,2.356,0,0,1-2.353,2.353H23.981a9.309,9.309,0,0,1-.661,1.537l1.208,1.208a2.387,2.387,0,0,1,.01,3.321l-1.245,1.245a2.39,2.39,0,0,1-3.331,0l-1.275-1.275a9.976,9.976,0,0,1-1.47.592v1.8A2.356,2.356,0,0,1,14.864,28H13.111A2.329,2.329,0,0,1,11.465,27.318ZM9.538,21.769a8.707,8.707,0,0,0,2.134.862.707.707,0,0,1,.525.683v2.332a.93.93,0,0,0,.939.94h1.728a.941.941,0,0,0,.939-.94V23.314a.706.706,0,0,1,.525-.683,8.685,8.685,0,0,0,2.134-.862.706.706,0,0,1,.853.113l1.646,1.646a.966.966,0,0,0,1.343-.01l1.224-1.224a.962.962,0,0,0,0-1.333l-1.591-1.591a.707.707,0,0,1-.1-.87,7.9,7.9,0,0,0,.933-2.165.707.707,0,0,1,.684-.53h2.2a.941.941,0,0,0,.939-.939V13.135a.955.955,0,0,0-.939-.967H23.534a.707.707,0,0,1-.69-.556,8.058,8.058,0,0,0-.883-2.27.707.707,0,0,1,.114-.85l1.454-1.454a.967.967,0,0,0,0-1.333L22.294,4.471a.963.963,0,0,0-1.332,0L19.534,5.9a.706.706,0,0,1-.867.1,9.141,9.141,0,0,0-2.343-.992.707.707,0,0,1-.521-.682V2.353a.929.929,0,0,0-.939-.94H13.136a.909.909,0,0,0-.939.94V4.328a.707.707,0,0,1-.54.687A8.255,8.255,0,0,0,9.332,6a.706.706,0,0,1-.867-.1L7.039,4.471a.966.966,0,0,0-1.343.01L4.471,5.706a.968.968,0,0,0,0,1.333L5.926,8.493a.707.707,0,0,1,.114.85,8.049,8.049,0,0,0-.883,2.27.707.707,0,0,1-.69.556H2.353a.955.955,0,0,0-.94.967v1.728a.941.941,0,0,0,.94.939H4.548a.707.707,0,0,1,.684.53A7.89,7.89,0,0,0,6.165,18.5a.707.707,0,0,1-.1.87L4.471,20.961A.967.967,0,0,0,4.482,22.3l1.224,1.224a.962.962,0,0,0,1.332,0l1.646-1.646a.707.707,0,0,1,.853-.113ZM9.34,14A4.66,4.66,0,1,1,14,18.66,4.66,4.66,0,0,1,9.34,14Zm1.414,0A3.247,3.247,0,1,0,14,10.753,3.247,3.247,0,0,0,10.753,14Z" transform="translate(1 1)" fill="#fff"/>
</svg>
