<svg xmlns="http://www.w3.org/2000/svg" xmlns:xlink="http://www.w3.org/1999/xlink" width="10" height="10" viewBox="0 0 10 10"><defs><style>.a{fill:#515151;}.b{clip-path:url(#a);}</style><clipPath id="a"><path class="a" d="M4.555,9.814.183,5.442a.625.625,0,0,1,.884-.884L4.375,7.866V.625a.625.625,0,0,1,1.25,0V7.866L8.933,4.558a.625.625,0,0,1,.884.884L5.445,9.814a.625.625,0,0,1-.89,0Z" transform="translate(0)"/></clipPath></defs><g transform="translate(0)"><path class="a" d="M4.555,9.814.183,5.442a.625.625,0,0,1,.884-.884L4.375,7.866V.625a.625.625,0,0,1,1.25,0V7.866L8.933,4.558a.625.625,0,0,1,.884.884L5.445,9.814a.625.625,0,0,1-.89,0Z" transform="translate(0)"/><g class="b" transform="translate(0 0)"><g transform="translate(-2.5 -2.5)"><rect class="a" width="15" height="15"/></g></g></g></svg>