<svg xmlns="http://www.w3.org/2000/svg" width="20.551" height="17.611" viewBox="0 0 20.551 17.611"><defs><style>.a{fill:rgba(0,0,0,0.54);}</style></defs><path class="a" d="M12.528,8.206A4.658,4.658,0,0,1,17.2,12.842a4.46,4.46,0,0,1-.335,1.7L19.6,17.245a10.964,10.964,0,0,0,3.206-4.4,11.372,11.372,0,0,0-2.6-3.861A10.868,10.868,0,0,0,12.519,5.89,11.081,11.081,0,0,0,8.8,6.536l2.018,2A4.621,4.621,0,0,1,12.528,8.206ZM3.186,5.679,5.318,7.793l.431.427a10.912,10.912,0,0,0-3.5,4.623,11.084,11.084,0,0,0,14.369,6.173l.394.39,2.738,2.706,1.188-1.179L4.369,4.5ZM8.35,10.8,9.8,12.237a2.627,2.627,0,0,0-.073.6,2.788,2.788,0,0,0,2.8,2.779,2.636,2.636,0,0,0,.605-.073l1.449,1.435a4.649,4.649,0,0,1-6.728-4.146A4.581,4.581,0,0,1,8.35,10.8Zm4.027-.72L15.321,13l.018-.147a2.788,2.788,0,0,0-2.8-2.779Z" transform="translate(-2.25 -4.5)"/></svg>