<svg xmlns="http://www.w3.org/2000/svg" xmlns:xlink="http://www.w3.org/1999/xlink" width="62.87" height="22.958" viewBox="0 0 62.87 22.958"><defs><style>.a{fill:none;}.b{fill:#fff;}.c{clip-path:url(#a);}</style><clipPath id="a"><rect class="a" width="26.847" height="22.958"/></clipPath></defs><g transform="translate(30.994 6.296)"><path class="b" d="M260.443,76.4V83.5h4.419V85h-6.039V76.4Z" transform="translate(-258.823 -76.109)"/><path class="b" d="M388.05,78.9a1.747,1.747,0,0,1-1.117,1.657,2.1,2.1,0,0,1,1.375,1.915c0,1.915-1.436,2.529-3.216,2.529h-4.075V76.4h4.075C386.786,76.4,388.05,77.165,388.05,78.9Zm-5.438.957h2.479c1.019,0,1.35-.43,1.35-.921,0-.393-.319-1.056-1.35-1.056h-2.479Zm0,3.633h2.479c.663,0,1.608-.221,1.608-1.031,0-.773-.945-1.178-1.608-1.178h-2.479Z" transform="translate(-364.693 -76.109)"/><path class="b" d="M448.184,76.567a2.463,2.463,0,0,0-2.038-.957c-1.2,0-1.78.5-1.78,1.141,0,.749.884.958,1.915,1.08,1.792.221,3.461.687,3.461,2.737,0,1.915-1.694,2.737-3.609,2.737-1.755,0-3.106-.54-3.744-2.111l1.35-.7a2.449,2.449,0,0,0,2.418,1.363c1.019,0,1.976-.356,1.976-1.289,0-.81-.847-1.142-1.989-1.264-1.755-.209-3.376-.675-3.376-2.6,0-1.768,1.743-2.492,3.326-2.5a3.474,3.474,0,0,1,3.376,1.706Z" transform="translate(-417.866 -74.198)"/><path class="b" d="M311.577,76.4h-1.767L305.955,85h1.755l2.983-6.788L313.663,85h1.768Z" transform="translate(-299.658 -76.109)"/><path class="b" d="M332.668,117.449l-1.6-3.658-1.6,3.658Z" transform="translate(-320.037 -108.502)"/></g><g transform="translate(0 0)"><g class="c"><path class="b" d="M38.231,28.34V43.365h9.252v2.513l-12.147.05V28.34h-3.43V48.809h17.18V33.742H39.834V31.221H57.7v2.521H51.981V48.809H57.7V28.34Z" transform="translate(-30.227 -27.742)"/></g></g></svg>