<svg xmlns="http://www.w3.org/2000/svg" width="24" height="24" viewBox="0 0 24 24"><defs><style>.a,.c{fill:none;}.a,.b{stroke:#1e3c50;stroke-width:0.1px;}.b{fill:#fff;}</style></defs><g transform="translate(-1818 -182.538)"><circle class="a" cx="1.2" cy="1.2" r="1.2" transform="translate(1822.4 193.338)"/><path class="b" d="M1823.6,191.738a2.8,2.8,0,1,0,2.8,2.8A2.8,2.8,0,0,0,1823.6,191.738Zm0,4a1.2,1.2,0,1,1,1.2-1.2A1.2,1.2,0,0,1,1823.6,195.738Z" transform="translate(-1.2)"/><circle class="a" cx="1.2" cy="1.2" r="1.2" transform="translate(1822.4 200.938)"/><path class="b" d="M1823.6,199.338a2.8,2.8,0,1,0,2.8,2.8A2.8,2.8,0,0,0,1823.6,199.338Zm0,4a1.2,1.2,0,1,1,1.2-1.2A1.2,1.2,0,0,1,1823.6,203.338Z" transform="translate(-1.2)"/><circle class="a" cx="1.2" cy="1.2" r="1.2" transform="translate(1828.8 185.738)"/><path class="b" d="M1830,184.138a2.8,2.8,0,1,0,2.8,2.8A2.8,2.8,0,0,0,1830,184.138Zm0,4a1.2,1.2,0,1,1,1.2-1.2A1.2,1.2,0,0,1,1830,188.138Z"/><circle class="a" cx="1.2" cy="1.2" r="1.2" transform="translate(1828.8 193.338)"/><path class="b" d="M1830,191.738a2.8,2.8,0,1,0,2.8,2.8A2.8,2.8,0,0,0,1830,191.738Zm0,4a1.2,1.2,0,1,1,1.2-1.2A1.2,1.2,0,0,1,1830,195.738Z"/><circle class="a" cx="1.2" cy="1.2" r="1.2" transform="translate(1828.8 200.938)"/><path class="b" d="M1830,199.338a2.8,2.8,0,1,0,2.8,2.8A2.8,2.8,0,0,0,1830,199.338Zm0,4a1.2,1.2,0,1,1,1.2-1.2A1.2,1.2,0,0,1,1830,203.338Z"/><circle class="a" cx="1.2" cy="1.2" r="1.2" transform="translate(1835.2 185.738)"/><path class="b" d="M1836.4,189.738a2.8,2.8,0,1,0-2.8-2.8A2.8,2.8,0,0,0,1836.4,189.738Zm0-4a1.2,1.2,0,1,1-1.2,1.2A1.2,1.2,0,0,1,1836.4,185.738Z" transform="translate(1.2)"/><circle class="a" cx="1.2" cy="1.2" r="1.2" transform="translate(1835.2 193.338)"/><path class="b" d="M1836.4,191.738a2.8,2.8,0,1,0,2.8,2.8A2.8,2.8,0,0,0,1836.4,191.738Zm0,4a1.2,1.2,0,1,1,1.2-1.2A1.2,1.2,0,0,1,1836.4,195.738Z" transform="translate(1.2)"/><circle class="a" cx="1.2" cy="1.2" r="1.2" transform="translate(1835.2 200.938)"/><path class="b" d="M1836.4,199.338a2.8,2.8,0,1,0,2.8,2.8A2.8,2.8,0,0,0,1836.4,199.338Zm0,4a1.2,1.2,0,1,1,1.2-1.2A1.2,1.2,0,0,1,1836.4,203.338Z" transform="translate(1.2)"/><rect class="c" width="24" height="24" transform="translate(1818 182.538)"/></g></svg>