<svg xmlns="http://www.w3.org/2000/svg" width="24" height="24" viewBox="0 0 24 24"><defs><style>.a{fill:none;}.b{fill:#fff;}</style></defs><g transform="translate(-1618 -182.538)"><path class="a" d="M1634.6,185.638h-8.8v2.4h8.8Z"/><path class="a" d="M1639,189.638h-18v8h3.2v-2.2H1623a.8.8,0,1,1,0-1.6h14a.8.8,0,1,1,0,1.6h-.8v2.2h2.8Zm-5.508,1.06a.664.664,0,0,1,.152-.044.8.8,0,0,1,.72.22.567.567,0,0,1,.1.12.913.913,0,0,1,.076.136.721.721,0,0,1,.044.152.769.769,0,0,1,0,.312.627.627,0,0,1-.044.148.786.786,0,0,1-.076.14.712.712,0,0,1-.1.124.806.806,0,0,1-.564.232.689.689,0,0,1-.156-.016.664.664,0,0,1-.152-.044.655.655,0,0,1-.136-.076.7.7,0,0,1-.12-.1.717.717,0,0,1-.1-.124.588.588,0,0,1-.076-.14.633.633,0,0,1-.044-.148.691.691,0,0,1-.016-.156.786.786,0,0,1,.236-.564.572.572,0,0,1,.12-.1A.912.912,0,0,1,1633.492,190.7Zm4.072,1.308a.7.7,0,0,1-.12.1.677.677,0,0,1-.14.076.63.63,0,0,1-.148.044.689.689,0,0,1-.156.016.8.8,0,0,1-.8-.8.787.787,0,0,1,.236-.564.569.569,0,0,1,.12-.1.906.906,0,0,1,.136-.076,1.086,1.086,0,0,1,.152-.044.819.819,0,0,1,.312,0,.9.9,0,0,1,.148.044.78.78,0,0,1,.14.076.569.569,0,0,1,.12.1.787.787,0,0,1,.236.564A.8.8,0,0,1,1637.564,192.006Z"/><path class="b" d="M1639,188.038h-2.8v-2.4a1.6,1.6,0,0,0-1.6-1.6h-8.8a1.6,1.6,0,0,0-1.6,1.6v2.4H1621a1.6,1.6,0,0,0-1.6,1.6v8a1.6,1.6,0,0,0,1.6,1.6h3.2v4.2a1.6,1.6,0,0,0,1.6,1.6h8.8a1.6,1.6,0,0,0,1.6-1.6v-4.2h2.8a1.6,1.6,0,0,0,1.6-1.6v-8A1.6,1.6,0,0,0,1639,188.038Zm-13.2,7.4h8.8v8h-8.8Zm10.4,0h.8a.8.8,0,1,0,0-1.6h-14a.8.8,0,1,0,0,1.6h1.2v2.2H1621v-8h18v8h-2.8Zm-10.4-9.8h8.8v2.4h-8.8Z"/><path class="a" d="M1625.8,203.438h8.8v-8h-8.8Zm7.2-2h-5.6a.8.8,0,1,1,0-1.6h5.6a.8.8,0,1,1,0,1.6Zm-6.4-3.6a.8.8,0,0,1,.8-.8h4a.8.8,0,0,1,0,1.6h-4A.8.8,0,0,1,1626.6,197.838Z"/><path class="b" d="M1631.4,198.638a.8.8,0,0,0,0-1.6h-4a.8.8,0,1,0,0,1.6Z"/><path class="b" d="M1637.444,190.774a.78.78,0,0,0-.14-.076.9.9,0,0,0-.148-.044.819.819,0,0,0-.312,0,1.086,1.086,0,0,0-.152.044.906.906,0,0,0-.136.076.569.569,0,0,0-.12.1.787.787,0,0,0-.236.564.8.8,0,0,0,.8.8.689.689,0,0,0,.156-.016.63.63,0,0,0,.148-.044.677.677,0,0,0,.14-.076.7.7,0,0,0,.12-.1.8.8,0,0,0,.236-.568.787.787,0,0,0-.236-.564A.569.569,0,0,0,1637.444,190.774Z"/><path class="b" d="M1633,199.838h-5.6a.8.8,0,1,0,0,1.6h5.6a.8.8,0,1,0,0-1.6Z"/><path class="b" d="M1633.236,190.874a.786.786,0,0,0-.236.564.691.691,0,0,0,.016.156.633.633,0,0,0,.044.148.588.588,0,0,0,.076.14.717.717,0,0,0,.1.124.7.7,0,0,0,.12.1.655.655,0,0,0,.136.076.664.664,0,0,0,.152.044.689.689,0,0,0,.156.016.806.806,0,0,0,.564-.232.712.712,0,0,0,.1-.124.786.786,0,0,0,.076-.14.627.627,0,0,0,.044-.148.769.769,0,0,0,0-.312.721.721,0,0,0-.044-.152.913.913,0,0,0-.076-.136.567.567,0,0,0-.1-.12.8.8,0,0,0-.72-.22.664.664,0,0,0-.152.044.912.912,0,0,0-.136.076A.572.572,0,0,0,1633.236,190.874Z"/><rect class="a" width="24" height="24" transform="translate(1618 182.538)"/></g></svg>