<svg xmlns="http://www.w3.org/2000/svg" width="24" height="24" viewBox="0 0 24 24"><defs><style>.a{fill:none;}.b{fill:#fff;}</style></defs><g transform="translate(-1518 -182.538)"><path class="a" d="M1529.981,194.389v-5.746l-6.185,2.875Z"/><path class="a" d="M1531.339,188.707v5.571l6.013-2.795Z"/><path class="a" d="M1529.981,198.56c-.4.756-.636,1.19-.8,1.443l.032.019a1.3,1.3,0,0,1-1.74.469l-4.707-2.3,0,2.891,7.221,3.35Z"/><path class="a" d="M1531.339,196.042v8.373l7.186-3.341,0-8.373Z"/><path class="b" d="M1519.839,194.991l-.011.018.045.02A.2.2,0,0,0,1519.839,194.991Z"/><path class="a" d="M1527.971,198.955c.286-.54.977-1.878,1.561-3.011l-7.219-3.345-2.065,2.6C1521.168,195.633,1523.217,196.634,1527.971,198.955Z"/><path class="b" d="M1540.12,187.369h0Z"/><path class="a" d="M1531.564,187.028l.11.05,7.2,3.339c.323-.955.823-2.433,1.062-3.12-2.036-.783-5.917-2.277-7.289-2.825Z"/><path class="b" d="M1540.812,185.924l-.059-.026c-2.993-1.149-7.563-2.914-7.865-3.05l-.1-.047a1.1,1.1,0,0,0-1.429.6l-1.488,3.528-7.9,3.672-.063.033a1.483,1.483,0,0,0-.6.65l-2.7,3.411a1.01,1.01,0,0,0-.227.77,1.215,1.215,0,0,0,.61.881l.2.127h.051c.3.146,1.015.494,1.923.937l0,3.747a1.487,1.487,0,0,0,.742,1.287l8.034,3.731a1.492,1.492,0,0,0,1.41,0l7.975-3.709.063-.032a1.491,1.491,0,0,0,.741-1.285l.005-9.24a1.449,1.449,0,0,0-.013-.188c.379-1.122,1.328-3.925,1.434-4.208A1.286,1.286,0,0,0,1540.812,185.924Zm-18.05,12.269,4.707,2.3a1.3,1.3,0,0,0,1.74-.469l-.032-.019c.168-.253.408-.687.8-1.443v5.874l-7.221-3.35Zm17.358-10.824Zm-.188-.072c-.239.687-.739,2.165-1.062,3.12l-7.2-3.339-.11-.05,1.079-2.556C1534.015,185.02,1537.9,186.514,1539.932,187.3Zm-8.593,1.41,6.014,2.776-6.014,2.795Zm-1.358,5.682-6.185-2.871,6.185-2.875Zm-10.142.6a.2.2,0,0,1,.034.038l-.045-.02Zm2.474-2.392,7.219,3.345c-.584,1.133-1.275,2.471-1.561,3.011-4.754-2.321-6.8-3.322-7.723-3.753Zm9.026,11.816v-8.373l7.19-3.342,0,8.374Z"/></g><g transform="translate(-1518 -182.538)"><rect class="a" width="24" height="24" transform="translate(1518 182.538)"/></g></svg>