<svg xmlns="http://www.w3.org/2000/svg" width="24" height="24" viewBox="0 0 24 24"><defs><style>.a{fill:#fff;}.b{fill:none;}</style></defs><g transform="translate(-2020.991 -1118.148)"><path class="a" d="M1801.995,1182.119v1.152c0,.012,0,.023,0,.034a.791.791,0,1,0,1.582,0h0v-1.186c0-3.053,1.693-5.537,4.746-5.537h4.232l.91-1.582h-5.141C1804.4,1175,1801.995,1178.194,1801.995,1182.119Z" transform="translate(220 -42.949)"/><path class="a" d="M1821.821,1153.865a5.932,5.932,0,1,0-5.932-5.932A5.932,5.932,0,0,0,1821.821,1153.865Zm0-10.283a4.35,4.35,0,1,1-4.35,4.35A4.35,4.35,0,0,1,1821.821,1143.582Z" transform="translate(211.599 -23)"/><path class="a" d="M1841.837,1177.792a.487.487,0,0,0-.184-.267l-.84-.652a3.719,3.719,0,0,0,0-1.064q.374-.291.747-.583l.091-.071a.428.428,0,0,0,.119-.6l-.989-1.707a.428.428,0,0,0-.579-.2l-.991.4a4.144,4.144,0,0,0-.913-.531q-.079-.537-.156-1.074a.415.415,0,0,0-.426-.377h-2.04a.413.413,0,0,0-.42.369l-.06.415q-.049.336-.1.672a4.117,4.117,0,0,0-.906.531l-.7-.281-.3-.121a.43.43,0,0,0-.579.2l-.986,1.707a.421.421,0,0,0,.119.6l.852.666a3.745,3.745,0,0,0,0,1.044l-.621.483-.233.182a.429.429,0,0,0-.116.6l.989,1.708a.428.428,0,0,0,.582.2l1-.4a4.142,4.142,0,0,0,.906.532q.071.491.142.983l.016.1a.409.409,0,0,0,.419.369h2.049a.411.411,0,0,0,.416-.37l.053-.369q.052-.356.1-.712a4.138,4.138,0,0,0,.915-.533q.465.189.931.375l.069.028a.423.423,0,0,0,.563-.191c.332-.574.664-1.147,1-1.727a.859.859,0,0,0,.057-.145l.029-.088Zm-7.692-1.453a2.562,2.562,0,1,1,2.562,2.562A2.562,2.562,0,0,1,1834.145,1176.339Z" transform="translate(202.129 -40.568)"/></g><rect class="b" width="24" height="24"/></svg>