<svg xmlns="http://www.w3.org/2000/svg" width="24" height="24" viewBox="0 0 24 24"><defs><style>.a,.b,.c,.d{fill:none;}.b,.c,.d,.e{stroke:#fff;}.b,.c,.d{stroke-linecap:round;}.b{stroke-width:1.8px;}.c{stroke-width:2px;}.d{stroke-linejoin:round;stroke-width:0.8px;}.e{fill:#fff;}.f{stroke:none;}</style></defs><rect class="a" width="24" height="24"/><g transform="translate(-12.5 -397.3)"><line class="b" x2="21" transform="translate(14 418.5)"/><line class="c" y2="7.7" transform="translate(17 410.3)"/><line class="c" y2="11.7" transform="translate(32 406.3)"/><line class="c" y2="6.7" transform="translate(27 411.3)"/><line class="c" y2="10.7" transform="translate(22 407.3)"/><path class="d" d="M517.012,12277.552l5.03-4.03,4.988,4.03,5.007-5.027" transform="translate(-500 -11872)"/><g class="e" transform="translate(15.5 404)"><circle class="f" cx="1.5" cy="1.5" r="1.5"/><circle class="a" cx="1.5" cy="1.5" r="1"/></g><g class="e" transform="translate(20.5 400)"><circle class="f" cx="1.5" cy="1.5" r="1.5"/><circle class="a" cx="1.5" cy="1.5" r="1"/></g><g class="e" transform="translate(25.5 404)"><circle class="f" cx="1.5" cy="1.5" r="1.5"/><circle class="a" cx="1.5" cy="1.5" r="1"/></g><g class="e" transform="translate(30.5 399)"><circle class="f" cx="1.5" cy="1.5" r="1.5"/><circle class="a" cx="1.5" cy="1.5" r="1"/></g></g></svg>