<svg xmlns="http://www.w3.org/2000/svg" width="24" height="24" viewBox="0 0 24 24"><defs><style>.a{fill:#fff;}.b{fill:none;}</style></defs><g transform="translate(-3228 6684.333)"><path class="a" d="M0,8.985V.1C0-.561.367-1,.917-1s.917.439.917,1.1V8.985c0,.659-.367,1.1-.917,1.1S0,9.644,0,8.985Z" transform="translate(3231.75 -6681.333)"/><path class="a" d="M.917,0A.866.866,0,0,0,0,.917v9.25a.866.866,0,0,0,.917.917.866.866,0,0,0,.917-.917V.917A.866.866,0,0,0,.917,0Z" transform="translate(3239.083 -6673.083)"/><path class="a" d="M.917,10.083a.866.866,0,0,0,.917-.917V-.083A.866.866,0,0,0,.917-1,.866.866,0,0,0,0-.083v9.25A.866.866,0,0,0,.917,10.083Z" transform="translate(3246.417 -6681.333)"/><path class="a" d="M6.417,4.583H4.583V-.083A.866.866,0,0,0,3.667-1a.866.866,0,0,0-.917.917V4.583H.917A.866.866,0,0,0,0,5.5a.866.866,0,0,0,.917.917h5.5A.866.866,0,0,0,7.333,5.5.866.866,0,0,0,6.417,4.583Z" transform="translate(3236.333 -6681.333)"/><path class="a" d="M6.417,0H.917A.866.866,0,0,0,0,.917a.866.866,0,0,0,.917.917H2.75V6.5a.866.866,0,0,0,.917.917A.866.866,0,0,0,4.583,6.5V1.833H6.417A.866.866,0,0,0,7.333.917.866.866,0,0,0,6.417,0Z" transform="translate(3243.667 -6669.417)"/><path class="a" d="M6.417,0H.917A.866.866,0,0,0,0,.917a.866.866,0,0,0,.917.917H2.75V6.5a.866.866,0,0,0,.917.917A.866.866,0,0,0,4.583,6.5V1.833H6.417A.866.866,0,0,0,7.333.917.866.866,0,0,0,6.417,0Z" transform="translate(3229 -6669.417)"/></g><rect class="b" width="24" height="24"/></svg>