<svg xmlns="http://www.w3.org/2000/svg" width="24" height="24" viewBox="0 0 24 24"><defs><style>.a,.c{fill:none;}.a{stroke:#fff;stroke-linecap:round;stroke-linejoin:round;stroke-width:1.6px;}.b{fill:#fff;}</style></defs><g transform="translate(-11.645 -299.847)"><g transform="translate(-2789.854 391.472)"><g transform="translate(2802.5 -89.025)"><path class="a" d="M798.353,8252.874h-1.634v-12.582l-1.573,1.574L792,8238.717l4.719-4.72h3.146a3.929,3.929,0,0,0,6.292,0H809.3l4.719,4.72-3.146,3.149-1.573-1.574v3.5" transform="translate(-792 -8233.997)"/></g></g><path class="a" d="M2164.1-809.7h-3.011l5.5-8.23,5.5,8.23h-3" transform="translate(-2139.39 1131.03)"/><g transform="translate(-209.473 73.5)"><g transform="translate(-0.111)"><rect class="b" width="1.6" height="2.999" rx="0.2" transform="translate(235.984 243.047)"/><rect class="b" width="1.6" height="1.601" rx="0.2" transform="translate(235.984 247)"/></g></g></g><rect class="c" width="24" height="24"/></svg>