<svg xmlns="http://www.w3.org/2000/svg" xmlns:xlink="http://www.w3.org/1999/xlink" width="62" height="24" viewBox="0 0 62 24"><defs><style>.a{fill:none;}.b{fill:#0a5185;}.c{clip-path:url(#a);}</style><clipPath id="a"><rect class="a" width="25.174" height="22.465"/></clipPath></defs><g transform="translate(0.042 1.511)"><g transform="translate(30.001 6.33)"><path class="b" d="M260.343,76.4v6.653h4.144v1.4h-5.663V76.4Z" transform="translate(-258.823 -76.128)"/><path class="b" d="M387.612,78.74a1.638,1.638,0,0,1-1.048,1.554,1.965,1.965,0,0,1,1.289,1.8c0,1.8-1.347,2.371-3.016,2.371h-3.821V76.4h3.821C386.427,76.4,387.612,77.118,387.612,78.74Zm-5.1.9h2.325c.955,0,1.266-.4,1.266-.863,0-.368-.3-.99-1.266-.99h-2.325Zm0,3.407h2.325c.622,0,1.508-.207,1.508-.967,0-.725-.886-1.105-1.508-1.105h-2.325Z" transform="translate(-365.71 -76.128)"/><path class="b" d="M447.823,76.419a2.309,2.309,0,0,0-1.911-.9c-1.128,0-1.669.472-1.669,1.07,0,.7.829.9,1.8,1.013,1.68.207,3.246.645,3.246,2.567,0,1.8-1.588,2.567-3.384,2.567-1.646,0-2.912-.506-3.51-1.98l1.266-.656a2.3,2.3,0,0,0,2.268,1.278c.955,0,1.853-.334,1.853-1.209,0-.76-.794-1.07-1.865-1.186-1.646-.2-3.165-.633-3.165-2.44,0-1.657,1.634-2.337,3.119-2.348a3.257,3.257,0,0,1,3.165,1.6Z" transform="translate(-419.394 -74.198)"/><path class="b" d="M311.226,76.4h-1.657l-3.614,8.057H307.6l2.8-6.365,2.785,6.365h1.657Z" transform="translate(-300.05 -76.127)"/><path class="b" d="M332.469,117.221l-1.5-3.43-1.5,3.43Z" transform="translate(-320.625 -108.831)"/></g><g transform="translate(0 0)"><g class="c" transform="translate(0)"><path class="b" d="M37.837,28.34v14.7h8.676V45.5l-11.39.049V28.34H31.907V48.37h16.11V33.626H39.34V31.159H56.1v2.467H50.73V48.37H56.1V28.34Z" transform="translate(-30.332 -27.755)"/></g></g></g><rect class="a" width="62" height="24"/></svg>