<svg xmlns="http://www.w3.org/2000/svg" xmlns:xlink="http://www.w3.org/1999/xlink" width="36" height="36" viewBox="0 0 36 36"><defs><style>.a{fill:#fff;}.b{fill:rgba(255,255,255,0.01);}.c{fill:none;}.d{clip-path:url(#a);}</style><clipPath id="a"><path class="a" d="M6.667,18.333v-2.5A6.655,6.655,0,0,1,1.033,5.617L2.25,6.833a4.9,4.9,0,0,0-.584,2.333,5.006,5.006,0,0,0,5,5v-2.5L10,15,6.668,18.332ZM12.3,12.717h0L11.083,11.5a4.9,4.9,0,0,0,.583-2.333,5.006,5.006,0,0,0-5-5v2.5L3.333,3.333,6.667,0V2.5A6.655,6.655,0,0,1,12.3,12.716Z"/></clipPath></defs><circle class="b" cx="18" cy="18" r="18"/><g transform="translate(8 8)"><path class="c" d="M0,0H20V20H0Z"/><g transform="translate(3.333 0.833)"><path class="a" d="M6.667,18.333v-2.5A6.655,6.655,0,0,1,1.033,5.617L2.25,6.833a4.9,4.9,0,0,0-.584,2.333,5.006,5.006,0,0,0,5,5v-2.5L10,15,6.668,18.332ZM12.3,12.717h0L11.083,11.5a4.9,4.9,0,0,0,.583-2.333,5.006,5.006,0,0,0-5-5v2.5L3.333,3.333,6.667,0V2.5A6.655,6.655,0,0,1,12.3,12.716Z"/><g class="d"><g transform="translate(-3.333 -0.833)"><rect class="a" width="20" height="20"/></g></g></g></g></svg>