<svg id="ic_right_menu" data-name="ic_right menu" xmlns="http://www.w3.org/2000/svg" width="26" height="25.845" viewBox="0 0 26 25.845">
  <path id="Union_3" data-name="Union 3" d="M20.877,25.845a1.03,1.03,0,0,1-1.03-1.03V20.723a1.03,1.03,0,0,1,1.03-1.03H24.97A1.03,1.03,0,0,1,26,20.723v4.093a1.03,1.03,0,0,1-1.03,1.03Zm-9.164,0a1.03,1.03,0,0,1-1.03-1.03V20.723a1.03,1.03,0,0,1,1.03-1.03h4.093a1.03,1.03,0,0,1,1.03,1.03v4.093a1.03,1.03,0,0,1-1.03,1.03Zm-9.139,0a1.03,1.03,0,0,1-1.03-1.03V20.723a1.03,1.03,0,0,1,1.03-1.03H6.667a1.03,1.03,0,0,1,1.03,1.03v4.093a1.03,1.03,0,0,1-1.03,1.03Zm18.3-9.01a1.03,1.03,0,0,1-1.03-1.03V11.713a1.03,1.03,0,0,1,1.03-1.03H24.97A1.03,1.03,0,0,1,26,11.713v4.093a1.03,1.03,0,0,1-1.03,1.03Zm-9.164,0a1.03,1.03,0,0,1-1.03-1.03V11.713a1.03,1.03,0,0,1,1.03-1.03h4.093a1.03,1.03,0,0,1,1.03,1.03v4.093a1.03,1.03,0,0,1-1.03,1.03Zm-9.139,0a1.03,1.03,0,0,1-1.03-1.03V11.713a1.03,1.03,0,0,1,1.03-1.03H6.667a1.03,1.03,0,0,1,1.03,1.03v4.093a1.03,1.03,0,0,1-1.03,1.03Zm18.3-9.01a1.03,1.03,0,0,1-1.03-1.03V2.7a1.03,1.03,0,0,1,1.03-1.03H24.97A1.03,1.03,0,0,1,26,2.7V6.8a1.03,1.03,0,0,1-1.03,1.03Zm-9.164,0a1.03,1.03,0,0,1-1.03-1.03V2.7a1.03,1.03,0,0,1,1.03-1.03h4.093a1.03,1.03,0,0,1,1.03,1.03V6.8a1.03,1.03,0,0,1-1.03,1.03Zm-10.42-.1A1.294,1.294,0,0,1,0,6.43V1.292A1.294,1.294,0,0,1,1.292,0H6.43A1.294,1.294,0,0,1,7.723,1.292V6.43A1.294,1.294,0,0,1,6.43,7.723ZM1.18,2.077V5.645a.9.9,0,0,0,.9.9H5.645a.9.9,0,0,0,.9-.9V2.077a.9.9,0,0,0-.9-.9H2.077A.9.9,0,0,0,1.18,2.077Z" fill="#fff"/>
</svg>
